<svg xmlns="http://www.w3.org/2000/svg" viewBox="0 0 822 1074" width="822" height="1074">
<rect width="100%" height="100%" rx="18" fill="#0b0f0e"/>
<defs><marker id="f" viewBox="0 0 10 10" refX="9" refY="5" markerWidth="7" markerHeight="7" orient="auto"><path d="M0 0L10 5L0 10z" fill="#4b5563"/></marker><marker id="fc" viewBox="0 0 10 10" refX="9" refY="5" markerWidth="7" markerHeight="7" orient="auto"><path d="M0 0L10 5L0 10z" fill="#34d399"/></marker></defs>
<text x="30" y="48" font-family="system-ui, -apple-system, 'Segoe UI', sans-serif" font-size="18" fill="#e5e7eb" font-weight="700" text-anchor="start">Réseau PERT — Hub Academy</text>
<text x="30" y="70" font-family="system-ui, -apple-system, 'Segoe UI', sans-serif" font-size="12" fill="#8b95a5" font-weight="400" text-anchor="start">Chaque tâche démarre quand celles dont elle dépend sont finies. En vert : le chemin critique.</text>
<path d="M411.0 164.0 C411.0 187.0 278.0 187.0 278.0 208.0" fill="none" stroke="#34d399" stroke-width="2.4" marker-end="url(#fc)"/>
<path d="M411.0 164.0 C411.0 187.0 544.0 187.0 544.0 208.0" fill="none" stroke="#4b5563" stroke-width="1.4" marker-end="url(#f)"/>
<path d="M544.0 284.0 C544.0 307.0 145.0 307.0 145.0 328.0" fill="none" stroke="#4b5563" stroke-width="1.4" marker-end="url(#f)"/>
<path d="M145.0 404.0 C145.0 427.0 278.0 427.0 278.0 448.0" fill="none" stroke="#4b5563" stroke-width="1.4" marker-end="url(#f)"/>
<path d="M278.0 284.0 C278.0 307.0 411.0 307.0 411.0 328.0" fill="none" stroke="#4b5563" stroke-width="1.4" marker-end="url(#f)"/>
<path d="M544.0 284.0 C544.0 367.0 544.0 367.0 544.0 448.0" fill="none" stroke="#4b5563" stroke-width="1.4" marker-end="url(#f)"/>
<path d="M145.0 404.0 C145.0 427.0 544.0 427.0 544.0 448.0" fill="none" stroke="#4b5563" stroke-width="1.4" marker-end="url(#f)"/>
<path d="M278.0 284.0 C278.0 307.0 677.0 307.0 677.0 328.0" fill="none" stroke="#34d399" stroke-width="2.4" marker-end="url(#fc)"/>
<path d="M411.0 404.0 C411.0 487.0 411.0 487.0 411.0 568.0" fill="none" stroke="#4b5563" stroke-width="1.4" marker-end="url(#f)"/>
<path d="M544.0 524.0 C544.0 547.0 411.0 547.0 411.0 568.0" fill="none" stroke="#4b5563" stroke-width="1.4" marker-end="url(#f)"/>
<path d="M677.0 404.0 C677.0 487.0 411.0 487.0 411.0 568.0" fill="none" stroke="#34d399" stroke-width="2.4" marker-end="url(#fc)"/>
<path d="M278.0 524.0 C278.0 607.0 411.0 607.0 411.0 688.0" fill="none" stroke="#4b5563" stroke-width="1.4" marker-end="url(#f)"/>
<path d="M411.0 644.0 C411.0 667.0 411.0 667.0 411.0 688.0" fill="none" stroke="#34d399" stroke-width="2.4" marker-end="url(#fc)"/>
<path d="M411.0 764.0 C411.0 787.0 411.0 787.0 411.0 808.0" fill="none" stroke="#34d399" stroke-width="2.4" marker-end="url(#fc)"/>
<path d="M411.0 884.0 C411.0 907.0 411.0 907.0 411.0 928.0" fill="none" stroke="#34d399" stroke-width="2.4" marker-end="url(#fc)"/>
<rect x="296.0" y="90.0" width="230" height="74" rx="12" fill="#141a18" stroke="#34d399" stroke-width="2"/>
<circle cx="312.0" cy="110.0" r="5" fill="#34d399"/>
<text x="324.0" y="114" font-family="system-ui, -apple-system, 'Segoe UI', sans-serif" font-size="13" fill="#e5e7eb" font-weight="600" text-anchor="start">T1 · Cadrage et architecture</text>
<text x="312.0" y="134" font-family="system-ui, -apple-system, 'Segoe UI', sans-serif" font-size="11" fill="#8b95a5" font-weight="400" text-anchor="start">Apps Script + Google Sheets</text>
<text x="312.0" y="153" font-family="ui-monospace, monospace" font-size="11" fill="#34d399" font-weight="600" text-anchor="start">terminé le 29/07</text>
<rect x="163.0" y="210.0" width="230" height="74" rx="12" fill="#141a18" stroke="#34d399" stroke-width="2"/>
<circle cx="179.0" cy="230.0" r="5" fill="#34d399"/>
<text x="191.0" y="234" font-family="system-ui, -apple-system, 'Segoe UI', sans-serif" font-size="13" fill="#e5e7eb" font-weight="600" text-anchor="start">T2 · Direction artistique</text>
<text x="179.0" y="254" font-family="system-ui, -apple-system, 'Segoe UI', sans-serif" font-size="11" fill="#8b95a5" font-weight="400" text-anchor="start">comparaison d'une dizaine de pistes</text>
<text x="179.0" y="273" font-family="ui-monospace, monospace" font-size="11" fill="#34d399" font-weight="600" text-anchor="start">terminé le 30/07</text>
<rect x="429.0" y="210.0" width="230" height="74" rx="12" fill="#141a18" stroke="#2a332f" stroke-width="1.2"/>
<circle cx="445.0" cy="230.0" r="5" fill="#34d399"/>
<text x="457.0" y="234" font-family="system-ui, -apple-system, 'Segoe UI', sans-serif" font-size="13" fill="#e5e7eb" font-weight="600" text-anchor="start">T3 · Modèle de données</text>
<text x="445.0" y="254" font-family="system-ui, -apple-system, 'Segoe UI', sans-serif" font-size="11" fill="#8b95a5" font-weight="400" text-anchor="start">onglets Joueurs, Astuces, Formations</text>
<text x="445.0" y="273" font-family="ui-monospace, monospace" font-size="11" fill="#34d399" font-weight="600" text-anchor="start">terminé le 17/08</text>
<rect x="30.0" y="330.0" width="230" height="74" rx="12" fill="#141a18" stroke="#2a332f" stroke-width="1.2"/>
<circle cx="46.0" cy="350.0" r="5" fill="#34d399"/>
<text x="58.0" y="354" font-family="system-ui, -apple-system, 'Segoe UI', sans-serif" font-size="13" fill="#e5e7eb" font-weight="600" text-anchor="start">T4 · Interface et éditeur</text>
<text x="46.0" y="374" font-family="system-ui, -apple-system, 'Segoe UI', sans-serif" font-size="11" fill="#8b95a5" font-weight="400" text-anchor="start">mur d'astuces, éditeur intégré</text>
<text x="46.0" y="393" font-family="ui-monospace, monospace" font-size="11" fill="#34d399" font-weight="600" text-anchor="start">terminé le 18/08</text>
<rect x="163.0" y="450.0" width="230" height="74" rx="12" fill="#141a18" stroke="#2a332f" stroke-width="1.2"/>
<circle cx="179.0" cy="470.0" r="5" fill="#34d399"/>
<text x="191.0" y="474" font-family="system-ui, -apple-system, 'Segoe UI', sans-serif" font-size="13" fill="#e5e7eb" font-weight="600" text-anchor="start">T5 · Rôles et administration</text>
<text x="179.0" y="494" font-family="system-ui, -apple-system, 'Segoe UI', sans-serif" font-size="11" fill="#8b95a5" font-weight="400" text-anchor="start">droits vérifiés côté serveur</text>
<text x="179.0" y="513" font-family="ui-monospace, monospace" font-size="11" fill="#34d399" font-weight="600" text-anchor="start">terminé le 19/08</text>
<rect x="296.0" y="330.0" width="230" height="74" rx="12" fill="#141a18" stroke="#2a332f" stroke-width="1.2"/>
<circle cx="312.0" cy="350.0" r="5" fill="#34d399"/>
<text x="324.0" y="354" font-family="system-ui, -apple-system, 'Segoe UI', sans-serif" font-size="13" fill="#e5e7eb" font-weight="600" text-anchor="start">T6 · Illustrations des cartes</text>
<text x="312.0" y="374" font-family="system-ui, -apple-system, 'Segoe UI', sans-serif" font-size="11" fill="#8b95a5" font-weight="400" text-anchor="start">Gem dédiée + planches de référence</text>
<text x="312.0" y="393" font-family="ui-monospace, monospace" font-size="11" fill="#34d399" font-weight="600" text-anchor="start">terminé le 15/09</text>
<rect x="429.0" y="450.0" width="230" height="74" rx="12" fill="#141a18" stroke="#2a332f" stroke-width="1.2"/>
<circle cx="445.0" cy="470.0" r="5" fill="#34d399"/>
<text x="457.0" y="474" font-family="system-ui, -apple-system, 'Segoe UI', sans-serif" font-size="13" fill="#e5e7eb" font-weight="600" text-anchor="start">T7 · Gamification</text>
<text x="445.0" y="494" font-family="system-ui, -apple-system, 'Segoe UI', sans-serif" font-size="11" fill="#8b95a5" font-weight="400" text-anchor="start">XP, niveaux, séries de jours</text>
<text x="445.0" y="513" font-family="ui-monospace, monospace" font-size="11" fill="#34d399" font-weight="600" text-anchor="start">terminé le 14/09</text>
<rect x="562.0" y="330.0" width="230" height="74" rx="12" fill="#141a18" stroke="#34d399" stroke-width="2"/>
<circle cx="578.0" cy="350.0" r="5" fill="#34d399"/>
<text x="590.0" y="354" font-family="system-ui, -apple-system, 'Segoe UI', sans-serif" font-size="13" fill="#e5e7eb" font-weight="600" text-anchor="start">T8 · Univers des cartes</text>
<text x="578.0" y="374" font-family="system-ui, -apple-system, 'Segoe UI', sans-serif" font-size="11" fill="#8b95a5" font-weight="400" text-anchor="start">bible, série L'Essor</text>
<text x="578.0" y="393" font-family="ui-monospace, monospace" font-size="11" fill="#34d399" font-weight="600" text-anchor="start">terminé le 21/09</text>
<rect x="296.0" y="570.0" width="230" height="74" rx="12" fill="#141a18" stroke="#34d399" stroke-width="2"/>
<circle cx="312.0" cy="590.0" r="5" fill="#34d399"/>
<text x="324.0" y="594" font-family="system-ui, -apple-system, 'Segoe UI', sans-serif" font-size="13" fill="#e5e7eb" font-weight="600" text-anchor="start">T9 · Boosters et collection</text>
<text x="312.0" y="633" font-family="ui-monospace, monospace" font-size="11" fill="#34d399" font-weight="600" text-anchor="start">terminé le 23/09</text>
<rect x="296.0" y="690.0" width="230" height="74" rx="12" fill="#141a18" stroke="#34d399" stroke-width="2"/>
<circle cx="312.0" cy="710.0" r="5" fill="#fbbf24"/>
<text x="324.0" y="714" font-family="system-ui, -apple-system, 'Segoe UI', sans-serif" font-size="13" fill="#e5e7eb" font-weight="600" text-anchor="start">T10 · Tests et corrections</text>
<text x="312.0" y="753" font-family="ui-monospace, monospace" font-size="11" fill="#fbbf24" font-weight="600" text-anchor="start">prévu le 15/11</text>
<rect x="296.0" y="810.0" width="230" height="74" rx="12" fill="#141a18" stroke="#34d399" stroke-width="2" stroke-dasharray="5 4"/>
<circle cx="312.0" cy="830.0" r="5" fill="#8b95a5"/>
<text x="324.0" y="834" font-family="system-ui, -apple-system, 'Segoe UI', sans-serif" font-size="13" fill="#e5e7eb" font-weight="600" text-anchor="start">T11 · Préparation présentation</text>
<text x="312.0" y="854" font-family="system-ui, -apple-system, 'Segoe UI', sans-serif" font-size="11" fill="#8b95a5" font-weight="400" text-anchor="start">support, démonstration</text>
<text x="312.0" y="873" font-family="ui-monospace, monospace" font-size="11" fill="#8b95a5" font-weight="600" text-anchor="start">prévu le 27/11</text>
<rect x="296.0" y="930.0" width="230" height="74" rx="12" fill="#141a18" stroke="#34d399" stroke-width="2" stroke-dasharray="5 4"/>
<circle cx="312.0" cy="950.0" r="5" fill="#8b95a5"/>
<text x="324.0" y="954" font-family="system-ui, -apple-system, 'Segoe UI', sans-serif" font-size="13" fill="#e5e7eb" font-weight="600" text-anchor="start">T12 · Présentation hiérarchie</text>
<text x="312.0" y="974" font-family="system-ui, -apple-system, 'Segoe UI', sans-serif" font-size="11" fill="#8b95a5" font-weight="400" text-anchor="start">au plus tard début décembre</text>
<text x="312.0" y="993" font-family="ui-monospace, monospace" font-size="11" fill="#8b95a5" font-weight="600" text-anchor="start">prévu le 27/11</text>
<circle cx="36" cy="1044" r="5" fill="#34d399"/>
<text x="46" y="1048" font-family="system-ui, -apple-system, 'Segoe UI', sans-serif" font-size="12" fill="#8b95a5" font-weight="400" text-anchor="start">Terminé</text>
<circle cx="146" cy="1044" r="5" fill="#fbbf24"/>
<text x="156" y="1048" font-family="system-ui, -apple-system, 'Segoe UI', sans-serif" font-size="12" fill="#8b95a5" font-weight="400" text-anchor="start">En cours</text>
<circle cx="256" cy="1044" r="5" fill="#8b95a5"/>
<text x="266" y="1048" font-family="system-ui, -apple-system, 'Segoe UI', sans-serif" font-size="12" fill="#8b95a5" font-weight="400" text-anchor="start">Prévu</text>
</svg>